<svg xmlns="http://www.w3.org/2000/svg" xmlns:xlink="http://www.w3.org/1999/xlink" version="1.1" x="0px" y="0px" viewBox="0 0 100 125" enable-background="new 0 0 100 100" xml:space="preserve"><path d="M32.267,42.687c0,0,0.498-1.04,1.77-2.155c0.628-0.566,1.455-1.146,2.488-1.566c1.023-0.417,2.306-0.668,3.618-0.421  l0.486,0.111l0.17,0.044l0.093,0.035l0.183,0.07l0.728,0.295c0.482,0.194,0.95,0.409,1.399,0.62c0.898,0.435,1.722,0.85,2.413,1.316  c1.392,0.872,2.21,1.653,2.21,1.652c0,0-1.141,0.003-2.691-0.29c-0.771-0.14-1.699-0.312-2.651-0.567  c-0.48-0.127-0.973-0.264-1.466-0.423l-0.746-0.243l-0.187-0.064l-0.092-0.033c0.075,0.027-0.022,0-0.023,0.002l-0.288-0.054  c-0.383-0.089-0.794-0.092-1.213-0.085c-0.42,0.021-0.853,0.082-1.279,0.158c-0.856,0.169-1.685,0.438-2.416,0.68  C33.27,42.319,32.267,42.687,32.267,42.687z"/><path d="M67.154,42.71c0,0-1.002-0.372-2.504-0.93c-0.358-0.115-0.748-0.239-1.16-0.37c-0.407-0.119-0.829-0.224-1.256-0.316  c-0.429-0.078-0.859-0.14-1.28-0.162c-0.417-0.008-0.833-0.006-1.212,0.083l-0.291,0.054c0-0.002-0.099,0.025-0.019-0.004  l-0.093,0.034l-0.186,0.065l-0.746,0.245c-0.494,0.163-0.988,0.299-1.466,0.427c-0.954,0.259-1.882,0.433-2.653,0.573  c-1.549,0.299-2.692,0.3-2.692,0.3c0,0.001,0.817-0.783,2.209-1.66c0.691-0.47,1.515-0.885,2.413-1.322  c0.449-0.214,0.914-0.429,1.398-0.626l0.729-0.294l0.186-0.072l0.09-0.035l0.174-0.044l0.485-0.112  c1.313-0.245,2.599,0.009,3.621,0.43c1.034,0.424,1.86,1.006,2.487,1.575C66.658,41.669,67.154,42.71,67.154,42.71z"/><path d="M78.947,61.34c-0.891-5.09-6.877-10.645-6.827-10.884c0.047-0.087,0.088-0.174,0.133-0.26  c0.308,0.101,0.973,0.566,1.247,0.549c1.762-0.109,2.592-1.733,2.816-2.458c0.366-1.187,1.455-7.29,1.362-8.562  c-0.197-2.663-1.861-4.101-3.612-4.825c0.166-3.658-0.049-8.037-1.118-12.149c-0.589-2.271-1.536-4.433-2.705-6.369  C67.076,9.952,60.74,4.6,50.289,4.6c-5.8,0-10.343,1.663-13.806,4.227c-4.472,1.964-8.339,7.576-9.736,14.235  c-0.865,4.126-0.945,8.468-0.697,12.066c-0.644,0.31-1.271,0.716-1.795,1.249c-0.924,0.94-1.381,2.097-1.357,3.438  c0.02,1.027,0.823,7.272,1.545,8.641c0.654,1.247,1.268,2.62,2.636,2.62c0.288,0,1.021-0.661,1.303-0.757  c0.022,0.046,0.044,0.091,0.066,0.139c0.044,0.231-5.494,4.69-6.327,9.868c-1.123,6.987-2.091,14.027,1.173,22.469  c1.71,4.422,16.385,13.301,26.775,13.301c10.39,0,24.479-8.359,26.601-12.601C80.381,76.067,80.147,68.191,78.947,61.34z   M73.925,37.008c0.894,0.521,1.671,1.393,1.78,2.861c0.062,0.883-0.916,6.646-1.282,7.835c-0.136,0.444-0.81,0.541-1.366,0.543  C73.396,46.018,73.683,39.682,73.925,37.008z M27.583,48.406c-0.636,0-1.076-0.278-1.39-0.873c-0.457-0.865-1.295-6.597-1.315-7.753  c-0.014-0.801,0.243-1.46,0.789-2.016c0.171-0.174,0.368-0.324,0.574-0.465c0.276,2.432,0.98,8.538,1.447,11.097  C27.652,48.398,27.619,48.406,27.583,48.406z M45.957,62.131c0.566-0.09,1.093-0.224,1.55-0.426  c3.155-1.401,3.441-1.475,6.362-0.035c0.46,0.226,0.993,0.377,1.569,0.472C52.752,62.117,48.737,62.112,45.957,62.131z   M69.608,51.944c0,0.002,0.002,0.004,0.004,0.005c-0.771,0.914-2.961,3.431-4.945,7.317c-0.383-0.146-0.828-0.265-1.325-0.328  c-4.483-0.566-4.349-1.567-6.459-2.753c-1.208-0.674-3.369-0.817-6.209,0.009c-2.292-0.771-4.739-0.781-5.926-0.115  c-1.57,0.878-3.348,2.172-5.026,2.687c-0.144-0.045-0.303-0.014-0.418,0.095c-0.432,0.099-0.858,0.155-1.269,0.112  c-0.728,0.095-1.372,0.328-1.864,0.595c-3.595-5.526-5.468-7.457-5.438-7.615c-0.014-0.081-0.027-0.152-0.041-0.23  c0.013-0.021,0.025-0.035,0.037-0.059c0.729-1.355-0.404-12.658-0.306-15.008l0.435-1.191c0.339-1.43,0.278-2.859,0.068-4.272  c0.139-0.734,0.309-1.461,0.554-2.154c1.462-4.153,3.269,0.196,10.192-6.72c1.611-1.61,2.324-3.402,2.469-5.155  c5.063,2.876,11.081,5.441,14.374,5.441c2.07,0,8.201,2.757,10.194,6.63c0.443,0.864,0.734,1.78,0.928,2.715  c-0.076,1.148-0.031,2.324,0.254,3.54l0.117,0.483C70.047,38.597,68.804,50.464,69.608,51.944z"/><text x="0" y="115" fill="#000000" font-size="5px" font-weight="bold" font-family="'Helvetica Neue', Helvetica, Arial-Unicode, Arial, Sans-serif">Created by Michael Thompson</text><text x="0" y="120" fill="#000000" font-size="5px" font-weight="bold" font-family="'Helvetica Neue', Helvetica, Arial-Unicode, Arial, Sans-serif">from the Noun Project</text></svg>